<?xml version="1.0" standalone="no"?>
<!DOCTYPE svg PUBLIC "-//W3C//DTD SVG 20010904//EN"
 "http://www.w3.org/TR/2001/REC-SVG-20010904/DTD/svg10.dtd">
<svg version="1.0" xmlns="http://www.w3.org/2000/svg"
 width="1030.000000pt" height="1030.000000pt" viewBox="0 0 1030.000000 1030.000000"
 preserveAspectRatio="xMidYMid meet">

<g transform="translate(0.000000,1030.000000) scale(0.100000,-0.100000)"
fill="#000000" stroke="none">
<path d="M4835 10289 c-736 -42 -1518 -268 -2163 -624 -1074 -593 -1914 -1559
-2335 -2685 -88 -235 -128 -367 -187 -605 -197 -800 -197 -1650 0 -2450 229
-931 686 -1741 1360 -2415 674 -674 1484 -1131 2415 -1360 800 -197 1650 -197
2450 0 931 229 1741 686 2415 1360 818 818 1314 1832 1469 3005 78 587 38
1263 -109 1860 -229 931 -686 1741 -1360 2415 -674 674 -1484 1131 -2415 1360
-499 123 -1011 169 -1540 139z m1895 -2298 c361 -97 627 -382 696 -746 21
-117 15 -297 -16 -405 -103 -364 -402 -630 -770 -685 -136 -21 -895 -21 -1030
0 -465 71 -800 458 -800 925 0 471 336 857 808 930 31 4 275 7 542 6 469 -2
488 -3 570 -25z m-733 -2187 c-3 -3 -12 -4 -19 -1 -8 3 -5 6 6 6 11 1 17 -2
13 -5z m340 -44 c545 -138 954 -565 1075 -1125 25 -118 35 -397 19 -532 -31
-248 -120 -485 -254 -673 -40 -56 -59 -75 -75 -74 -12 1 -19 -3 -16 -7 3 -5
10 -7 15 -4 21 14 6 -12 -28 -47 -30 -31 -39 -35 -55 -27 -11 6 -26 8 -34 5
-11 -4 -14 5 -14 39 0 33 -4 45 -15 45 -10 0 -15 10 -15 30 0 17 -4 30 -10 30
-5 0 -10 23 -10 50 0 49 -1 50 -30 50 l-30 0 0 80 c0 47 -4 80 -10 80 -5 0
-10 18 -10 40 0 33 -3 40 -20 40 -17 0 -20 7 -20 40 0 33 -3 40 -20 40 -17 0
-20 7 -20 40 0 29 -4 40 -15 40 -11 0 -15 11 -15 40 0 29 -4 40 -15 40 -11 0
-15 11 -15 40 0 22 -4 40 -10 40 -5 0 -10 18 -10 40 0 28 -4 40 -14 40 -10 0
-16 22 -21 80 -4 44 -11 80 -16 80 -5 0 -9 -4 -9 -10 0 -5 -4 -10 -10 -10 -5
0 -10 23 -10 50 0 38 -4 50 -15 50 -11 0 -15 11 -15 40 0 28 -4 40 -14 40 -8
0 -16 -6 -19 -12 -2 -7 -2 11 1 40 3 35 1 52 -7 52 -6 0 -11 17 -11 40 0 29
-4 40 -15 40 -11 0 -15 11 -15 40 0 29 -4 40 -15 40 -10 0 -15 10 -15 30 0 17
-4 30 -10 30 -5 0 -10 23 -10 50 0 38 -4 50 -15 50 -11 0 -15 11 -15 40 0 29
-4 40 -15 40 -11 0 -15 11 -15 40 0 36 -2 40 -25 40 -22 0 -25 4 -25 40 0 29
-4 40 -15 40 -11 0 -15 11 -15 40 0 22 -4 40 -10 40 -5 0 -10 18 -10 40 0 29
-4 40 -15 40 -11 0 -15 11 -15 40 0 29 -4 40 -15 40 -11 0 -15 11 -15 40 0 22
-4 40 -10 40 -5 0 -10 18 -10 40 0 29 -4 40 -15 40 -11 0 -15 12 -15 50 0 36
-4 52 -15 56 -8 4 -15 17 -15 30 0 19 -5 24 -25 24 -16 0 -25 6 -25 15 0 8 7
15 15 15 14 0 19 11 16 37 -1 6 6 14 16 16 10 2 6 3 -9 1 -16 -2 -28 1 -28 6
0 6 -17 11 -37 11 l-38 2 35 7 c53 12 152 1 277 -30z m-250 4 c-3 -3 -12 -4
-19 -1 -8 3 -5 6 6 6 11 1 17 -2 13 -5z m-2617 -949 c107 -35 179 -70 256
-128 199 -150 317 -352 345 -591 17 -144 7 -561 -15 -656 -72 -301 -308 -545
-612 -632 -66 -19 -103 -22 -224 -22 -128 1 -155 4 -233 27 -100 31 -166 62
-252 120 -171 116 -306 321 -349 529 -23 110 -23 596 0 706 45 220 187 427
375 548 92 58 141 80 254 110 80 21 106 24 230 20 119 -3 153 -7 225 -31z
m3550 -1555 c8 -5 12 -12 9 -15 -8 -8 -39 5 -39 16 0 11 11 11 30 -1z m-24
-21 c3 -6 -10 -28 -31 -48 -21 -20 -35 -30 -31 -23 8 13 -4 16 -20 5 -5 -5 -1
0 9 9 11 10 24 15 30 11 7 -4 8 0 4 12 -12 29 23 59 39 34z"/>
<path d="M6118 5783 c7 -3 16 -2 19 1 4 3 -2 6 -13 5 -11 0 -14 -3 -6 -6z"/>
</g>
</svg>
